<svg width="128" height="128" viewBox="0 0 128 128" fill="none" xmlns="http://www.w3.org/2000/svg">
  <!-- Sunset Background Glow -->
  <defs>
    <radialGradient id="sunsetGlow" cx="50%" cy="50%" r="50%" fx="50%" fy="50%">
      <stop offset="0%" style="stop-color:#FF8C00;stop-opacity:0.6" />
      <stop offset="100%" style="stop-color:#FF0080;stop-opacity:0" />
    </radialGradient>
    <linearGradient id="ghostBody" x1="0%" y1="0%" x2="0%" y2="100%">
      <stop offset="0%" style="stop-color:#FFFFFF;stop-opacity:1" />
      <stop offset="100%" style="stop-color:#F0F0F0;stop-opacity:1" />
    </linearGradient>
  </defs>
  
  <circle cx="64" cy="64" r="60" fill="url(#sunsetGlow)"/>
  
  <!-- Ghost Shape -->
  <path d="M64 28C48 28 36 40 36 56V88C36 91 38.5 93 41 91C43.5 89 46 87 48.5 89C51 91 53.5 93 56 91C58.5 89 61 87 64 89C67 87 69.5 89 72 91C74.5 93 77 91 79.5 89C82 87 84.5 89 87 91C89.5 93 92 91 92 88V56C92 40 80 28 64 28Z" fill="url(#ghostBody)" stroke="#E0E0E0" stroke-width="1"/>
  
  <!-- Eyes -->
  <circle cx="54" cy="54" r="3" fill="#333333"/>
  <circle cx="74" cy="54" r="3" fill="#333333"/>
  
  <!-- Blushing -->
  <circle cx="48" cy="60" r="4" fill="#FFB6C1" opacity="0.4"/>
  <circle cx="80" cy="60" r="4" fill="#FFB6C1" opacity="0.4"/>
</svg>
